<?xml version="1.0" standalone="no"?>
<!DOCTYPE svg PUBLIC "-//W3C//DTD SVG 20010904//EN"
 "http://www.w3.org/TR/2001/REC-SVG-20010904/DTD/svg10.dtd">
<svg version="1.0" xmlns="http://www.w3.org/2000/svg"
 width="1280.000000pt" height="1049.000000pt" viewBox="0 0 1280.000000 1049.000000"
 preserveAspectRatio="xMidYMid meet">
<metadata>
Created by potrace 1.15, written by Peter Selinger 2001-2017
</metadata>
<g transform="translate(0.000000,1049.000000) scale(0.100000,-0.100000)"
fill="#9e9e9e" stroke="none">
<path d="M5790 10480 c-190 -9 -281 -22 -434 -60 -563 -142 -1007 -512 -1235
-1027 -162 -366 -357 -1011 -671 -2213 -134 -516 -168 -637 -201 -725 -24 -65
-66 -115 -97 -115 -33 0 -354 47 -817 119 -510 80 -675 101 -791 101 l-82 0
-7 47 c-11 77 -52 171 -110 257 -61 90 -80 116 -86 116 -6 0 6 -155 27 -338
l17 -153 -21 -20 c-12 -11 -28 -32 -36 -47 -24 -48 -91 -302 -171 -657 -78
-347 -165 -719 -230 -990 -50 -206 -101 -439 -266 -1200 -124 -571 -260 -1143
-355 -1494 -123 -455 -174 -706 -209 -1038 -27 -250 -13 -416 47 -561 34 -82
70 -131 179 -243 84 -87 170 -134 312 -171 78 -21 103 -22 542 -24 412 -1 469
-3 545 -20 81 -18 119 -19 760 -12 371 4 2063 11 3760 17 3861 14 5859 35
6025 65 137 24 217 47 300 86 80 37 185 111 185 131 0 6 -6 7 -12 3 -9 -5 -9
-3 1 9 7 9 17 14 22 12 13 -9 81 123 98 189 25 99 21 435 -7 601 -39 225 -128
607 -313 1345 -519 2060 -670 2683 -830 3425 -58 267 -118 506 -149 588 -12
32 -36 74 -52 93 -26 30 -36 34 -77 34 -116 0 -533 -63 -1036 -156 -198 -37
-338 -58 -413 -61 l-112 -6 -33 35 c-100 107 -303 527 -758 1573 -354 816
-549 1168 -795 1442 -68 76 -321 303 -479 430 -225 181 -663 437 -875 511
-251 87 -621 123 -1060 102z m812 -400 c293 -62 682 -230 856 -370 121 -97
333 -375 507 -665 267 -446 412 -728 522 -1020 133 -355 165 -463 222 -755 67
-345 84 -497 85 -743 l1 -229 -28 -23 c-15 -14 -45 -29 -66 -35 -171 -46
-1755 -70 -2741 -42 -234 7 -814 16 -1290 20 -587 6 -874 12 -892 20 -35 15
-52 67 -43 135 4 29 27 148 51 265 24 117 65 326 90 465 25 139 63 322 85 407
167 658 502 1520 713 1833 218 325 639 589 1131 711 272 67 557 76 797 26z
m6003 -9800 c-3 -5 -12 -10 -18 -10 -7 0 -6 4 3 10 19 12 23 12 15 0z m-35
-15 c0 -7 -57 -35 -72 -35 -7 0 5 9 27 19 48 23 45 22 45 16z m-12224 -73 c-5
-4 -86 36 -86 43 0 3 20 -5 45 -17 24 -12 43 -23 41 -26z m12131 32 c-3 -3
-12 -4 -19 -1 -8 3 -5 6 6 6 11 1 17 -2 13 -5z m-59 -11 c-10 -2 -26 -2 -35 0
-10 3 -2 5 17 5 19 0 27 -2 18 -5z m-80 -10 c-10 -2 -28 -2 -40 0 -13 2 -5 4
17 4 22 1 32 -1 23 -4z m-105 -10 c-18 -2 -48 -2 -65 0 -18 2 -4 4 32 4 36 0
50 -2 33 -4z m-145 -10 c-16 -2 -40 -2 -55 0 -16 2 -3 4 27 4 30 0 43 -2 28
-4z m-180 -10 c-27 -2 -69 -2 -95 0 -27 2 -5 3 47 3 52 0 74 -1 48 -3z
m-11463 -13 c13 -6 15 -9 5 -9 -8 0 -22 4 -30 9 -18 12 -2 12 25 0z m11223 3
c-21 -2 -55 -2 -75 0 -21 2 -4 4 37 4 41 0 58 -2 38 -4z m-250 -10 c-43 -2
-113 -2 -155 0 -43 1 -8 3 77 3 85 0 120 -2 78 -3z m-10921 -9 c-3 -3 -12 -4
-19 -1 -8 3 -5 6 6 6 11 1 17 -2 13 -5z m10551 -1 c-32 -2 -84 -2 -115 0 -32
2 -6 3 57 3 63 0 89 -1 58 -3z m-10495 -10 c-7 -2 -19 -2 -25 0 -7 3 -2 5 12
5 14 0 19 -2 13 -5z m10105 0 c-64 -2 -172 -2 -240 0 -68 1 -15 3 117 3 132 0
187 -2 123 -3z m-10025 -10 c-7 -2 -21 -2 -30 0 -10 3 -4 5 12 5 17 0 24 -2
18 -5z m9440 0 c-57 -2 -149 -2 -205 0 -57 1 -11 3 102 3 113 0 159 -2 103 -3z
m-9295 -10 c-21 -2 -55 -2 -75 0 -21 2 -4 4 37 4 41 0 58 -2 38 -4z m8585 0
c-111 -2 -295 -2 -410 0 -114 1 -23 2 202 2 226 0 319 -1 208 -2z m-8355 -10
c-26 -2 -71 -2 -100 0 -29 2 -8 3 47 3 55 0 79 -1 53 -3z m7200 0 c-126 -2
-330 -2 -455 0 -126 1 -23 2 227 2 250 0 353 -1 228 -2z m-6815 -10 c-45 -2
-122 -2 -170 0 -48 1 -11 3 82 3 94 0 133 -2 88 -3z m5040 0 c-281 -2 -745 -2
-1030 0 -285 1 -54 2 512 2 567 0 800 -1 518 -2z m-4730 -10 c-29 -2 -77 -2
-105 0 -29 2 -6 3 52 3 58 0 81 -1 53 -3z m2655 0 c-109 -2 -287 -2 -395 0
-109 1 -20 2 197 2 217 0 306 -1 198 -2z m-2330 -10 c-38 -2 -98 -2 -135 0
-38 2 -7 3 67 3 74 0 105 -1 68 -3z m1385 0 c-83 -2 -223 -2 -310 0 -87 1 -18
3 152 3 171 0 242 -2 158 -3z m-1185 -10 c-15 -2 -42 -2 -60 0 -18 2 -6 4 27
4 33 0 48 -2 33 -4z m575 0 c-29 -2 -78 -2 -110 0 -32 2 -8 3 52 3 61 0 87 -1
58 -3z m-475 -10 c-10 -2 -28 -2 -40 0 -13 2 -5 4 17 4 22 1 32 -1 23 -4z m80
0 c-10 -2 -28 -2 -40 0 -13 2 -5 4 17 4 22 1 32 -1 23 -4z m145 0 c-24 -2 -62
-2 -85 0 -24 2 -5 4 42 4 47 0 66 -2 43 -4z"/>
</g>
</svg>
